<svg width="322" height="342" fill="none" xmlns="http://www.w3.org/2000/svg"><path d="M161 340.8c80.854 0 146.4-65.546 146.4-146.4S241.854 48 161 48C80.145 48 14.6 113.546 14.6 194.4S80.146 340.8 161 340.8z" fill="#1EAAF1"/><path fill-rule="evenodd" clip-rule="evenodd" d="M272.9 288.8c-14.8-27.8-44-46.8-77.7-46.8h-4.9v-22.4c21-10 36.1-30.4 38.7-54.5 7.1-1 12.6-7.1 12.6-14.5v-17.1c0-7.2-5.2-13.3-12.2-14.4v-7.6c0-25.6-14.2-47.9-35-59.7-10.8-2.5-21.9-3.8-33.4-3.8s-22.7 1.3-33.3 3.8c-20.9 11.7-35 34-35 59.7v7.6c-7 1.2-12.2 7.2-12.2 14.4v17.1c0 7.4 5.5 13.5 12.6 14.5 2.6 24.2 17.7 44.5 38.7 54.5V242h-4.9c-33.7 0-63 19-77.7 46.8 26.8 31.7 67 52 111.9 52 44.9 0 84.9-20.1 111.8-52z" fill="#EDB98A"/><path fill-rule="evenodd" clip-rule="evenodd" d="M272.9 288.8c-13.7-25.9-39.8-44-70.4-46.5v1.3c0 14.5-18.3 26.2-40.9 26.2-22.6 0-40.9-11.8-40.9-26.4v-1.3c-31.1 2.2-57.7 20.5-71.6 46.6 26.8 31.7 67 52 111.9 52 44.9 0 85-20 111.9-51.9z" fill="#262E33"/><path fill-rule="evenodd" clip-rule="evenodd" d="M209.9 245.4c0-.7 0-1.5-.1-2.2-2.4-.4-4.9-.7-7.4-1v1.3c0 14.5-18.3 26.2-40.9 26.2-22.6 0-40.7-11.7-40.7-26.2v-1.3c-2.4.1-5 .5-7.4.9-.1.7-.1 1.6-.1 2.3 0 18.2 21.6 32.8 48.3 32.8 26.7 0 48.3-14.6 48.3-32.8z" fill="#000" fill-opacity=".16"/><path d="M49.1 288.8c18.8 22.3 44.2 38.8 73.1 46.7-3.3-13.5-5.1-28.9-5.1-45.4 0-17.4 2.1-33.9 5.9-48.1-32.2 1.6-59.7 20.1-73.9 46.8zM272.9 288.8c-14-26.4-41-44.9-72.5-46.7 3.7 14.2 5.9 30.5 5.9 47.9 0 16.2-1.8 31.6-5.1 45.1 28.2-7.8 53.1-24.3 71.7-46.3z" fill="#3A4C5A"/><path fill-rule="evenodd" clip-rule="evenodd" d="M143.9 181c0 9.4 7.7 17.1 17.1 17.1 9.4 0 17.1-7.7 17.1-17.1" fill="#000" fill-opacity=".7"/><path fill-rule="evenodd" clip-rule="evenodd" d="M146.4 157.8c0 5.4 6.6 9.8 14.6 9.8 8.1 0 14.6-4.4 14.6-9.8" fill="#000" fill-opacity=".16"/><path d="M129.3 143.1a7.3 7.3 0 0 0 7.3-7.3 7.3 7.3 0 0 0-7.3-7.3 7.3 7.3 0 0 0-7.3 7.3 7.3 7.3 0 0 0 7.3 7.3zM192.7 143.1a7.3 7.3 0 0 0 7.3-7.3 7.3 7.3 0 0 0-7.3-7.3 7.3 7.3 0 0 0-7.3 7.3 7.3 7.3 0 0 0 7.3 7.3zM111.7 120.2c4.8-6.7 17.8-10.5 29.2-7.7 1.3.4 2.7-.5 2.9-1.8.4-1.3-.5-2.7-1.8-2.9-13.1-3.3-28.2 1.1-34.2 9.5-.7 1.1-.5 2.6.6 3.4 1.1.9 2.6.6 3.3-.5zM210.3 120.2c-4.8-6.7-17.8-10.5-29.2-7.7-1.3.4-2.7-.5-2.9-1.8-.2-1.3.5-2.7 1.8-2.9 13.1-3.2 28.3 1.1 34.3 9.6.7 1.1.5 2.6-.6 3.4-1.1.9-2.7.5-3.4-.6z" fill="#000" fill-opacity=".6"/><path fill-rule="evenodd" clip-rule="evenodd" d="M113.8 62.6c.1-.1-.2-.1-1.1-.1 1 .1 1.3.1 1.1.1zm-10-19.1s0 .2 0 0zm131.4 42.1c-.4-4-.9-8.1-1.8-12.1-.7-3.2-1.8-6.1-3.1-9.2-.7-1.8-2.4-4.3-2.7-6.2-.2-2 1.3-4 1.6-6.3.4-2.2.2-4.5-.2-6.6-1-4.9-4.4-9.5-9.6-10.7-1.2-.2-3.7.1-4.4-.6-1-.7-1.6-3.4-2.4-4.5-2.4-3-6.2-5-10.2-4.3-2.9.5-1.2 1.1-3.4-.6-1.2-1-2.2-2.4-3.3-3.4-1.8-1.6-3.9-2.9-6-4-5.6-2.9-12-5-18.1-6-11.3-1.8-23.4-.2-34.4 2.7-5.5 1.5-11 3.3-16 5.7-2.2 1.1-3.4 2-5.7 2.2-3.5.5-6.6.4-10 2C95 28.2 90.2 39.1 94.3 49.5c.9 2.1 2 3.9 3.4 5.6 1.8 2.1 2.6 1.6 1 4-2.4 3.5-4.4 7.3-6.1 11.2-4.3 10.1-5 21.7-4.8 32.6.1 3.8.2 7.7.9 11.5.2 1.6.4 4.8 1.6 6 .6.6 1.5 1 2.4.7 2.1-.6 1.3-2.1 1.5-3.5.2-7.2-.1-13.5 1.6-20.6 1.2-5.2 3.4-10 6.1-14.6 3.4-6 7.2-11.2 12-16.3 1.1-1.2 1.3-1.7 2.8-1.8 1.1-.1 2.8.7 3.9 1 2.4.6 4.9 1.2 7.3 1.6 4.5.7 9 .7 13.7.6 9-.2 18.2-1 27-3.2 5.9-1.5 11-4.3 16.6-6.2.1 0 1.5-1 1.7-1 .4 0 2.4 2.2 2.8 2.4 2.7 2.1 5.7 3 8.7 4.6 3.7 2.1.1-.9 2.1 1.7.6.7.9 2.1 1.3 2.9 1.5 2.7 3.5 5 6 6.8 2.5 1.8 6 2.7 7.2 5 1 1.8 1.2 4.3 2 6.2 2 5 4.6 9.8 7.2 14.5 2.1 3.8 4.4 7.2 4.6 11.6.1 1.5-1.3 10.6 2.2 7.9.5-.4 1.7-5.1 1.8-5.9 1-3.2 1.2-6.6 1.7-9.9.9-6.5 1.2-12.7.7-19.3z" fill="#4A312C"/><path fill-rule="evenodd" clip-rule="evenodd" d="M172.6 122.9c4.8-9.6 14.8-16.3 26.2-16.3 10.9 0 20.4 6 25.4 14.8.2-.1.5-.1.9-.1h9.8c1.7 0 3.1 1.3 3.1 3s-1.3 3-3.1 3H227c.9 2.7 1.2 5.6 1.2 8.5 0 16.2-13.1 29.3-29.3 29.3-16.2 0-29.3-13.1-29.3-29.3 0-1.7.1-3.4.5-5.1-.1-5.4-4.1-9.5-9.2-9.5-4.5 0-8.4 3.5-9 8.3.5 2.1.7 4.1.7 6.3 0 16.2-13.1 29.3-29.3 29.3-16.2 0-29.4-13-29.4-29.3 0-2.9.5-5.9 1.2-8.5h-7.9c-1.7 0-3.1-1.3-3.1-3s1.3-3 3.1-3H97c.2 0 .5 0 .9.1 5-8.8 14.5-14.8 25.4-14.8 11.5 0 21.3 6.5 26.1 16.1 2.6-3.8 6.7-6.3 11.5-6.3 4.9-.1 9.1 2.5 11.7 6.5zm-49.4 37.3c13.4 0 24.4-11 24.4-24.4 0-13.4-11-24.4-24.4-24.4-13.4 0-24.4 11-24.4 24.4 0 13.4 11 24.4 24.4 24.4zm75.6 0c13.4 0 24.4-11 24.4-24.4 0-13.4-11-24.4-24.4-24.4-13.4 0-24.4 11-24.4 24.4 0 13.4 11 24.4 24.4 24.4z" fill="#000"/><path fill-rule="evenodd" clip-rule="evenodd" d="M172.6 122.9c4.8-9.6 14.8-16.3 26.2-16.3 10.9 0 20.4 6 25.4 14.8.2-.1.5-.1.9-.1h9.8c1.7 0 3.1 1.3 3.1 3s-1.3 3-3.1 3H227c.9 2.7 1.2 5.6 1.2 8.5 0 16.2-13.1 29.3-29.3 29.3-16.2 0-29.3-13.1-29.3-29.3 0-1.7.1-3.4.5-5.1-.1-5.4-4.1-9.5-9.2-9.5-4.5 0-8.4 3.5-9 8.3.5 2.1.7 4.1.7 6.3 0 16.2-13.1 29.3-29.3 29.3-16.2 0-29.4-13-29.4-29.3 0-2.9.5-5.9 1.2-8.5h-7.9c-1.7 0-3.1-1.3-3.1-3s1.3-3 3.1-3H97c.2 0 .5 0 .9.1 5-8.8 14.5-14.8 25.4-14.8 11.5 0 21.3 6.5 26.1 16.1 2.6-3.8 6.7-6.3 11.5-6.3 4.9-.1 9.1 2.5 11.7 6.5zm-49.4 37.3c13.4 0 24.4-11 24.4-24.4 0-13.4-11-24.4-24.4-24.4-13.4 0-24.4 11-24.4 24.4 0 13.4 11 24.4 24.4 24.4zm75.6 0c13.4 0 24.4-11 24.4-24.4 0-13.4-11-24.4-24.4-24.4-13.4 0-24.4 11-24.4 24.4 0 13.4 11 24.4 24.4 24.4z" fill="#252C2F"/><path fill-rule="evenodd" clip-rule="evenodd" d="m220.8 311.5 11.7-8.8c1.7-1.3 4.1-1.3 6 0l7.9 6.3-25.6 2.5z" fill="#E6E6E6"/><path d="M206.1 242c-2.4-.7-4.9-1.2-7.3-1.2 4.8 22.9 2.9 55-5.4 96.4 7.9-1.8 15.6-4.3 23.1-7.3l12.8-32.9-7.3-11 7.3-7.3-23.2-36.7zM115.9 242l-23.2 36.6 7.3 7.3-7.3 11 12.8 33.1c7.4 3 15.1 5.5 23.1 7.3-8.3-41.4-10.1-73.6-5.4-96.4-2.5-.1-4.9.4-7.3 1.1z" fill="#2F4351"/><path fill-rule="evenodd" clip-rule="evenodd" d="M161 235.9c10.5 0 20.4-2.3 29.3-6.6v-9.8c.1 0 .1-.1.2-.1-8.9 4.3-18.9 6.7-29.5 6.7-10.6 0-20.6-2.4-29.5-6.7.1 0 .1.1.2.1v9.8c8.9 4.3 18.8 6.6 29.3 6.6z" fill="#000" fill-opacity=".1"/></svg>