<svg height="265px" xmlns="http://www.w3.org/2000/svg" width="650px" xmlns:vectornator="http://vectornator.io" version="1.1" viewBox="0 0 650 265">

<defs/>
<g id="Website" vectornator:layerName="Website">
<g opacity="1">
<path stroke="#2563eb" stroke-width="2.08143" d="M126.008+41.765C126.008+37.7383+129.264+34.4816+133.298+34.4816L386.872+34.4816C390.899+34.4816+394.162+37.7405+394.162+41.765L394.162+215.307C394.162+219.334+390.906+222.591+386.872+222.591L133.298+222.591C129.271+222.591+126.008+219.332+126.008+215.307L126.008+41.765Z" fill="#ffffff" stroke-linecap="butt" opacity="1" stroke-linejoin="miter"/>
<path stroke="#2563eb" stroke-width="2.08143" d="M142.41+53.7365C142.41+52.0124+143.813+50.6127+145.536+50.6127L374.374+50.6127C376.103+50.6127+377.5+52.0044+377.5+53.7365L377.5+183.042C377.5+184.766+376.097+186.166+374.374+186.166L145.536+186.166C143.807+186.166+142.41+184.774+142.41+183.042L142.41+53.7365Z" fill="#ffffff" stroke-linecap="butt" opacity="1" stroke-linejoin="miter"/>
<path stroke="#2563eb" stroke-width="2.08143" d="M240.99+222.591L279.441+222.591L282.037+256.154L238.394+256.154L240.99+222.591Z" fill="#ffffff" stroke-linecap="butt" opacity="1" stroke-linejoin="miter"/>
<path stroke="#2563eb" stroke-width="2.08143" d="M222.334+263.442L222.334+259.927C222.334+257.846+224.024+256.154+226.104+256.154L294.326+256.154C296.402+256.154+298.096+257.846+298.096+259.927L298.096+263.442C298.096+263.587+297.984+263.699+297.835+263.699L222.596+263.699C222.45+263.699+222.334+263.584+222.334+263.442Z" fill="#ffffff" stroke-linecap="butt" opacity="1" stroke-linejoin="miter"/>
<path stroke="#2563eb" stroke-width="2.08143" d="M255.399+205.809C255.399+203.151+257.555+200.996+260.215+200.996C262.875+200.996+265.032+203.151+265.032+205.809C265.032+208.468+262.875+210.623+260.215+210.623C257.555+210.623+255.399+208.468+255.399+205.809Z" fill="none" stroke-linecap="butt" opacity="1" stroke-linejoin="miter"/>
<path stroke="#2563eb" stroke-width="2.08143" d="M107.519+162.75L146.578+162.75C150.026+162.75+152.822+165.545+152.822+168.994L152.822+257.455C152.822+260.903+150.026+263.699+146.578+263.699L107.519+263.699C104.071+263.699+101.275+260.903+101.275+257.455L101.275+168.994C101.275+165.545+104.071+162.75+107.519+162.75Z" fill="#ffffff" stroke-linecap="butt" opacity="1" stroke-linejoin="miter"/>
<path stroke="#2563eb" stroke-width="2.08143" d="M101.275+173.937L152.822+173.937L152.822+248.687L101.275+248.687L101.275+173.937Z" fill="#ffffff" stroke-linecap="butt" opacity="1" stroke-linejoin="miter"/>
<path stroke="#2563eb" stroke-width="2.08143" d="M115.853+167.173L138.504+167.173C139.079+167.173+139.545+167.639+139.545+168.214L139.545+168.214C139.545+168.788+139.079+169.254+138.504+169.254L115.853+169.254C115.278+169.254+114.812+168.788+114.812+168.214L114.812+168.214C114.812+167.639+115.278+167.173+115.853+167.173Z" fill="#7510f7" stroke-linecap="butt" opacity="1" stroke-linejoin="miter"/>
<path stroke="#2563eb" stroke-width="2.08143" d="M127.012+253.101L127.015+253.101C128.653+253.101+129.981+254.429+129.981+256.067L129.981+256.067C129.981+257.706+128.653+259.033+127.015+259.033L127.012+259.033C125.373+259.033+124.046+257.706+124.046+256.067L124.046+256.067C124.046+254.429+125.373+253.101+127.012+253.101Z" fill="#2563eb" stroke-linecap="butt" opacity="1" stroke-linejoin="miter"/>
<path stroke="#2563eb" stroke-width="2.08143" d="M111.949+211.143C111.949+208.988+113.697+207.24+115.854+207.24C118.011+207.24+119.759+208.988+119.759+211.143C119.759+213.298+118.011+215.046+115.854+215.046C113.697+215.046+111.949+213.298+111.949+211.143Z" fill="#ffffff" stroke-linecap="butt" opacity="1" stroke-linejoin="miter"/>
<path stroke="#2563eb" stroke-width="2.08143" d="M126.007+204.378L142.149+204.378C142.724+204.378+143.19+204.844+143.19+205.419L143.19+205.419C143.19+205.994+142.724+206.46+142.149+206.46L126.007+206.46C125.432+206.46+124.966+205.994+124.966+205.419L124.966+205.419C124.966+204.844+125.432+204.378+126.007+204.378Z" fill="#7510f7" stroke-linecap="butt" opacity="1" stroke-linejoin="miter"/>
<path stroke="#2563eb" stroke-width="2.08143" d="M126.007+210.102L136.942+210.102C137.517+210.102+137.983+210.568+137.983+211.143L137.983+211.143C137.983+211.718+137.517+212.184+136.942+212.184L126.007+212.184C125.432+212.184+124.966+211.718+124.966+211.143L124.966+211.143C124.966+210.568+125.432+210.102+126.007+210.102Z" fill="#7510f7" stroke-linecap="butt" opacity="1" stroke-linejoin="miter"/>
<path stroke="#2563eb" stroke-width="2.08143" d="M126.007+215.826L131.736+215.826C132.31+215.826+132.776+216.292+132.776+216.867L132.776+216.867C132.776+217.442+132.31+217.908+131.736+217.908L126.007+217.908C125.432+217.908+124.966+217.442+124.966+216.867L124.966+216.867C124.966+216.292+125.432+215.826+126.007+215.826Z" fill="#7510f7" stroke-linecap="butt" opacity="1" stroke-linejoin="miter"/>
<path stroke="#2563eb" stroke-width="2.08143" d="M34.8856+171.726C34.8856+149.669+52.778+131.788+74.8493+131.788C96.9207+131.788+114.813+149.669+114.813+171.726C114.813+193.783+96.9207+211.663+74.8493+211.663C52.778+211.663+34.8856+193.783+34.8856+171.726Z" fill="#ffffff" stroke-linecap="butt" opacity="1" stroke-linejoin="miter"/>
<path stroke="#2563eb" stroke-width="2.08143" d="M325.949+123.463L506.115+123.463C509.564+123.463+512.359+126.258+512.359+129.707L512.359+246.527C512.359+249.976+509.564+252.772+506.115+252.772L325.949+252.772C322.501+252.772+319.705+249.976+319.705+246.527L319.705+129.707C319.705+126.258+322.501+123.463+325.949+123.463Z" fill="#ffffff" stroke-linecap="butt" opacity="1" stroke-linejoin="miter"/>
<path stroke="#2563eb" stroke-width="2.08143" d="M306.426+253.026L306.426+258.235C306.426+261.248+308.874+263.699+311.888+263.699L520.176+263.699C523.187+263.699+525.638+261.25+525.638+258.235L525.638+253.026C525.638+252.884+525.525+252.772+525.379+252.772L306.685+252.772C306.539+252.772+306.426+252.884+306.426+253.026Z" fill="#ffffff" stroke-linecap="butt" opacity="1" stroke-linejoin="miter"/>
<path stroke="#2563eb" stroke-width="2.08143" d="M430.429+252.889L401.27+252.888C402.434+255.961+405.402+258.092+408.808+258.092L422.891+258.092C426.297+258.092+429.265+255.962+430.429+252.889Z" fill="#ffffff" stroke-linecap="butt" opacity="1" stroke-linejoin="miter"/>
<path stroke="#2563eb" stroke-width="2.08143" d="M330.376+135.691L501.533+135.691C502.683+135.691+503.615+136.623+503.615+137.773L503.615+238.683C503.615+239.832+502.683+240.764+501.533+240.764L330.376+240.764C329.227+240.764+328.295+239.832+328.295+238.683L328.295+137.773C328.295+136.623+329.227+135.691+330.376+135.691Z" fill="#ffffff" stroke-linecap="butt" opacity="1" stroke-linejoin="miter"/>
<path stroke="#2563eb" stroke-width="2.08143" d="M253.056+52.9543C253.056+52.2359+253.639+51.6534+254.358+51.6534C255.076+51.6534+255.659+52.2359+255.659+52.9543C255.659+53.6728+255.076+54.2552+254.358+54.2552C253.639+54.2552+253.056+53.6728+253.056+52.9543Z" fill="#293347" stroke-linecap="butt" opacity="1" stroke-linejoin="miter"/>
<path stroke="#2563eb" stroke-width="2.08143" d="M179.899+14.9682L300.178+14.9682L300.178+130.228C300.178+134.249+296.909+137.512+292.886+137.512L187.191+137.512C183.166+137.512+179.899+134.248+179.899+130.228L179.899+14.9682Z" fill="#ffffff" stroke-linecap="butt" opacity="1" stroke-linejoin="miter"/>
<path stroke="#2563eb" stroke-width="2.08143" d="M179.899+9.23775C179.899+5.21962+183.169+1.95929+187.191+1.95929L292.886+1.95929C296.913+1.95929+300.178+5.21613+300.178+9.23775L300.178+17.0497L179.899+17.0497L179.899+9.23775Z" fill="#ffffff" stroke-linecap="butt" opacity="1" stroke-linejoin="miter"/>
<path stroke="#2563eb" stroke-width="2.08143" d="M188.751+9.50447C188.751+8.21123+189.8+7.16286+191.094+7.16286C192.388+7.16286+193.437+8.21123+193.437+9.50447C193.437+10.7977+192.388+11.8461+191.094+11.8461C189.8+11.8461+188.751+10.7977+188.751+9.50447Z" fill="#2563eb" stroke-linecap="butt" opacity="1" stroke-linejoin="miter"/>
<path stroke="#2563eb" stroke-width="2.08143" d="M196.561+9.50447C196.561+8.21123+197.61+7.16286+198.904+7.16286C200.198+7.16286+201.247+8.21123+201.247+9.50447C201.247+10.7977+200.198+11.8461+198.904+11.8461C197.61+11.8461+196.561+10.7977+196.561+9.50447Z" fill="#2563eb" stroke-linecap="butt" opacity="1" stroke-linejoin="miter"/>
<path stroke="#2563eb" stroke-width="2.08143" d="M204.371+9.50447C204.371+8.21123+205.42+7.16286+206.714+7.16286C208.008+7.16286+209.057+8.21123+209.057+9.50447C209.057+10.7977+208.008+11.8461+206.714+11.8461C205.42+11.8461+204.371+10.7977+204.371+9.50447Z" fill="#2563eb" stroke-linecap="butt" opacity="1" stroke-linejoin="miter"/>
<path stroke="#2563eb" stroke-width="2.08143" d="M195.519+90.9404L198.124+90.9404C198.698+90.9404+199.164+91.4064+199.164+91.9811L199.164+91.9811C199.164+92.5559+198.698+93.0218+198.124+93.0218L195.519+93.0218C194.944+93.0218+194.478+92.5559+194.478+91.9811L194.478+91.9811C194.478+91.4064+194.944+90.9404+195.519+90.9404Z" fill="#7510f7" stroke-linecap="butt" opacity="1" stroke-linejoin="miter"/>
<path stroke="#2563eb" stroke-width="2.08143" d="M195.519+38.9047L198.124+38.9047C198.698+38.9047+199.164+39.3706+199.164+39.9454L199.164+39.9454C199.164+40.5202+198.698+40.9861+198.124+40.9861L195.519+40.9861C194.944+40.9861+194.478+40.5202+194.478+39.9454L194.478+39.9454C194.478+39.3706+194.944+38.9047+195.519+38.9047Z" fill="#7510f7" stroke-linecap="butt" opacity="1" stroke-linejoin="miter"/>
<path stroke="#2563eb" stroke-width="2.08143" d="M203.329+38.9047L210.36+38.9047C210.935+38.9047+211.401+39.3706+211.401+39.9454C211.401+40.5202+210.935+40.9861+210.36+40.9861L203.329+40.9861C202.754+40.9861+202.288+40.5202+202.288+39.9454C202.288+39.3706+202.754+38.9047+203.329+38.9047Z" fill="#7510f7" stroke-linecap="butt" opacity="1" stroke-linejoin="miter"/>
<path stroke="#2563eb" stroke-width="2.08143" d="M215.045+38.9047L222.075+38.9047C222.65+38.9047+223.116+39.3706+223.116+39.9454C223.116+40.5202+222.65+40.9861+222.075+40.9861L215.045+40.9861C214.47+40.9861+214.004+40.5202+214.004+39.9454C214.004+39.3706+214.47+38.9047+215.045+38.9047Z" fill="#7510f7" stroke-linecap="butt" opacity="1" stroke-linejoin="miter"/>
<path stroke="#2563eb" stroke-width="2.08143" d="M226.76+38.9047L239.779+38.9047C240.354+38.9047+240.82+39.3706+240.82+39.9454C240.82+40.5202+240.354+40.9861+239.779+40.9861L226.76+40.9861C226.186+40.9861+225.72+40.5202+225.72+39.9454C225.72+39.3706+226.186+38.9047+226.76+38.9047Z" fill="#7510f7" stroke-linecap="butt" opacity="1" stroke-linejoin="miter"/>
<path stroke="#2563eb" stroke-width="2.08143" d="M244.464+38.9047L263.731+38.9047C264.305+38.9047+264.771+39.3706+264.771+39.9454C264.771+40.5202+264.305+40.9861+263.731+40.9861L244.464+40.9861C243.889+40.9861+243.423+40.5202+243.423+39.9454C243.423+39.3706+243.889+38.9047+244.464+38.9047Z" fill="#7510f7" stroke-linecap="butt" opacity="1" stroke-linejoin="miter"/>
<path stroke="#2563eb" stroke-width="2.08143" d="M195.519+49.3118L198.124+49.3118C198.698+49.3118+199.164+49.7778+199.164+50.3525L199.164+50.3525C199.164+50.9273+198.698+51.3932+198.124+51.3932L195.519+51.3932C194.944+51.3932+194.478+50.9273+194.478+50.3525L194.478+50.3525C194.478+49.7778+194.944+49.3118+195.519+49.3118Z" fill="#7510f7" stroke-linecap="butt" opacity="1" stroke-linejoin="miter"/>
<path stroke="#2563eb" stroke-width="2.08143" d="M195.519+59.719L198.124+59.719C198.698+59.719+199.164+60.1849+199.164+60.7597L199.164+60.7597C199.164+61.3345+198.698+61.8004+198.124+61.8004L195.519+61.8004C194.944+61.8004+194.478+61.3345+194.478+60.7597L194.478+60.7597C194.478+60.1849+194.944+59.719+195.519+59.719Z" fill="#7510f7" stroke-linecap="butt" opacity="1" stroke-linejoin="miter"/>
<path stroke="#2563eb" stroke-width="2.08143" d="M195.519+70.1261L198.124+70.1261C198.698+70.1261+199.164+70.5921+199.164+71.1668L199.164+71.1668C199.164+71.7416+198.698+72.2075+198.124+72.2075L195.519+72.2075C194.944+72.2075+194.478+71.7416+194.478+71.1668L194.478+71.1668C194.478+70.5921+194.944+70.1261+195.519+70.1261Z" fill="#7510f7" stroke-linecap="butt" opacity="1" stroke-linejoin="miter"/>
<path stroke="#2563eb" stroke-width="2.08143" d="M195.519+80.5333L198.124+80.5333C198.698+80.5333+199.164+80.9992+199.164+81.574L199.164+81.574C199.164+82.1487+198.698+82.6147+198.124+82.6147L195.519+82.6147C194.944+82.6147+194.478+82.1487+194.478+81.574L194.478+81.574C194.478+80.9992+194.944+80.5333+195.519+80.5333Z" fill="#7510f7" stroke-linecap="butt" opacity="1" stroke-linejoin="miter"/>
<path stroke="#2563eb" stroke-width="2.08143" d="M195.519+101.348L198.124+101.348C198.698+101.348+199.164+101.814+199.164+102.388L199.164+102.388C199.164+102.963+198.698+103.429+198.124+103.429L195.519+103.429C194.944+103.429+194.478+102.963+194.478+102.388L194.478+102.388C194.478+101.814+194.944+101.348+195.519+101.348Z" fill="#7510f7" stroke-linecap="butt" opacity="1" stroke-linejoin="miter"/>
<path stroke="#2563eb" stroke-width="2.08143" d="M195.519+111.755L198.124+111.755C198.698+111.755+199.164+112.221+199.164+112.795L199.164+112.795C199.164+113.37+198.698+113.836+198.124+113.836L195.519+113.836C194.944+113.836+194.478+113.37+194.478+112.795L194.478+112.795C194.478+112.221+194.944+111.755+195.519+111.755Z" fill="#7510f7" stroke-linecap="butt" opacity="1" stroke-linejoin="miter"/>
<path stroke="#2563eb" stroke-width="2.08143" d="M203.329+49.3118L219.472+49.3118C220.047+49.3118+220.513+49.7778+220.513+50.3525L220.513+50.3525C220.513+50.9273+220.047+51.3932+219.472+51.3932L203.329+51.3932C202.754+51.3932+202.288+50.9273+202.288+50.3525L202.288+50.3525C202.288+49.7778+202.754+49.3118+203.329+49.3118Z" fill="#7510f7" stroke-linecap="butt" opacity="1" stroke-linejoin="miter"/>
<path stroke="#2563eb" stroke-width="2.08143" d="M224.157+49.3118L253.317+49.3118C253.892+49.3118+254.358+49.7778+254.358+50.3525L254.358+50.3525C254.358+50.9273+253.892+51.3932+253.317+51.3932L224.157+51.3932C223.582+51.3932+223.116+50.9273+223.116+50.3525L223.116+50.3525C223.116+49.7778+223.582+49.3118+224.157+49.3118Z" fill="#7510f7" stroke-linecap="butt" opacity="1" stroke-linejoin="miter"/>
<path stroke="#2563eb" stroke-width="2.08143" d="M258.002+49.3118L268.938+49.3118C269.512+49.3118+269.978+49.7778+269.978+50.3525L269.978+50.3525C269.978+50.9273+269.512+51.3932+268.938+51.3932L258.002+51.3932C257.427+51.3932+256.961+50.9273+256.961+50.3525L256.961+50.3525C256.961+49.7778+257.427+49.3118+258.002+49.3118Z" fill="#7510f7" stroke-linecap="butt" opacity="1" stroke-linejoin="miter"/>
<path stroke="#2563eb" stroke-width="2.08143" d="M203.329+59.719L214.265+59.719C214.84+59.719+215.306+60.1849+215.306+60.7597L215.306+60.7597C215.306+61.3345+214.84+61.8004+214.265+61.8004L203.329+61.8004C202.754+61.8004+202.288+61.3345+202.288+60.7597L202.288+60.7597C202.288+60.1849+202.754+59.719+203.329+59.719Z" fill="#7510f7" stroke-linecap="butt" opacity="1" stroke-linejoin="miter"/>
<path stroke="#2563eb" stroke-width="2.08143" d="M218.95+59.719L229.886+59.719C230.461+59.719+230.926+60.1849+230.926+60.7597L230.926+60.7597C230.926+61.3345+230.461+61.8004+229.886+61.8004L218.95+61.8004C218.375+61.8004+217.909+61.3345+217.909+60.7597L217.909+60.7597C217.909+60.1849+218.375+59.719+218.95+59.719Z" fill="#7510f7" stroke-linecap="butt" opacity="1" stroke-linejoin="miter"/>
<path stroke="#2563eb" stroke-width="2.08143" d="M234.571+59.719L240.3+59.719C240.874+59.719+241.34+60.1849+241.34+60.7597L241.34+60.7597C241.34+61.3345+240.874+61.8004+240.3+61.8004L234.571+61.8004C233.996+61.8004+233.53+61.3345+233.53+60.7597L233.53+60.7597C233.53+60.1849+233.996+59.719+234.571+59.719Z" fill="#7510f7" stroke-linecap="butt" opacity="1" stroke-linejoin="miter"/>
<path stroke="#2563eb" stroke-width="2.08143" d="M203.329+70.1261L227.282+70.1261C227.857+70.1261+228.323+70.5921+228.323+71.1668L228.323+71.1668C228.323+71.7416+227.857+72.2075+227.282+72.2075L203.329+72.2075C202.754+72.2075+202.288+71.7416+202.288+71.1668L202.288+71.1668C202.288+70.5921+202.754+70.1261+203.329+70.1261Z" fill="#7510f7" stroke-linecap="butt" opacity="1" stroke-linejoin="miter"/>
<path stroke="#2563eb" stroke-width="2.08143" d="M231.967+70.1261L248.11+70.1261C248.685+70.1261+249.151+70.5921+249.151+71.1668L249.151+71.1668C249.151+71.7416+248.685+72.2075+248.11+72.2075L231.967+72.2075C231.392+72.2075+230.926+71.7416+230.926+71.1668L230.926+71.1668C230.926+70.5921+231.392+70.1261+231.967+70.1261Z" fill="#7510f7" stroke-linecap="butt" opacity="1" stroke-linejoin="miter"/>
<path stroke="#2563eb" stroke-width="2.08143" d="M203.329+80.5333L227.282+80.5333C227.857+80.5333+228.323+80.9992+228.323+81.574L228.323+81.574C228.323+82.1487+227.857+82.6147+227.282+82.6147L203.329+82.6147C202.754+82.6147+202.288+82.1487+202.288+81.574L202.288+81.574C202.288+80.9992+202.754+80.5333+203.329+80.5333Z" fill="#7510f7" stroke-linecap="butt" opacity="1" stroke-linejoin="miter"/>
<path stroke="#2563eb" stroke-width="2.08143" d="M231.967+80.5333L263.731+80.5333C264.305+80.5333+264.771+80.9992+264.771+81.574L264.771+81.574C264.771+82.1487+264.305+82.6147+263.731+82.6147L231.967+82.6147C231.392+82.6147+230.926+82.1487+230.926+81.574L230.926+81.574C230.926+80.9992+231.392+80.5333+231.967+80.5333Z" fill="#7510f7" stroke-linecap="butt" opacity="1" stroke-linejoin="miter"/>
<path stroke="#2563eb" stroke-width="2.08143" d="M203.329+90.9404L219.472+90.9404C220.047+90.9404+220.513+91.4064+220.513+91.9811L220.513+91.9811C220.513+92.5559+220.047+93.0218+219.472+93.0218L203.329+93.0218C202.754+93.0218+202.288+92.5559+202.288+91.9811L202.288+91.9811C202.288+91.4064+202.754+90.9404+203.329+90.9404Z" fill="#7510f7" stroke-linecap="butt" opacity="1" stroke-linejoin="miter"/>
<path stroke="#2563eb" stroke-width="2.08143" d="M224.157+90.9404L240.3+90.9404C240.874+90.9404+241.34+91.4064+241.34+91.9811L241.34+91.9811C241.34+92.5559+240.874+93.0218+240.3+93.0218L224.157+93.0218C223.582+93.0218+223.116+92.5559+223.116+91.9811L223.116+91.9811C223.116+91.4064+223.582+90.9404+224.157+90.9404Z" fill="#7510f7" stroke-linecap="butt" opacity="1" stroke-linejoin="miter"/>
<path stroke="#2563eb" stroke-width="2.08143" d="M244.984+90.9404L253.317+90.9404C253.892+90.9404+254.358+91.4064+254.358+91.9811L254.358+91.9811C254.358+92.5559+253.892+93.0218+253.317+93.0218L244.984+93.0218C244.41+93.0218+243.944+92.5559+243.944+91.9811L243.944+91.9811C243.944+91.4064+244.41+90.9404+244.984+90.9404Z" fill="#7510f7" stroke-linecap="butt" opacity="1" stroke-linejoin="miter"/>
<path stroke="#2563eb" stroke-width="2.08143" d="M203.329+101.348L235.093+101.348C235.667+101.348+236.133+101.814+236.133+102.388L236.133+102.388C236.133+102.963+235.667+103.429+235.093+103.429L203.329+103.429C202.754+103.429+202.288+102.963+202.288+102.388L202.288+102.388C202.288+101.814+202.754+101.348+203.329+101.348Z" fill="#7510f7" stroke-linecap="butt" opacity="1" stroke-linejoin="miter"/>
<path stroke="#2563eb" stroke-width="2.08143" d="M203.329+111.755L216.868+111.755C217.443+111.755+217.909+112.221+217.909+112.795L217.909+112.795C217.909+113.37+217.443+113.836+216.868+113.836L203.329+113.836C202.754+113.836+202.288+113.37+202.288+112.795L202.288+112.795C202.288+112.221+202.754+111.755+203.329+111.755Z" fill="#7510f7" stroke-linecap="butt" opacity="1" stroke-linejoin="miter"/>
<path stroke="#2563eb" stroke-width="2.08143" d="M414.991+96.6644L557.659+96.6644L557.659+198.143C557.659+202.163+554.4+205.419+550.374+205.419L422.277+205.419C418.256+205.419+414.991+202.157+414.991+198.143L414.991+96.6644Z" fill="#ffffff" stroke-linecap="butt" opacity="1" stroke-linejoin="miter"/>
<path stroke="#2563eb" stroke-width="2.08143" d="M414.991+90.9339C414.991+86.9127+418.251+83.6554+422.277+83.6554L550.374+83.6554C554.398+83.6554+557.659+86.9125+557.659+90.9339L557.659+98.7458L414.991+98.7458L414.991+90.9339Z" fill="#ffffff" stroke-linecap="butt" opacity="1" stroke-linejoin="miter"/>
<path stroke="#2563eb" stroke-width="2.08143" d="M423.842+91.2006C423.842+89.9074+424.892+88.859+426.186+88.859C427.48+88.859+428.529+89.9074+428.529+91.2006C428.529+92.4938+427.48+93.5422+426.186+93.5422C424.892+93.5422+423.842+92.4938+423.842+91.2006Z" fill="#2563eb" stroke-linecap="butt" opacity="1" stroke-linejoin="miter"/>
<path stroke="#2563eb" stroke-width="2.08143" d="M431.653+91.2006C431.653+89.9074+432.702+88.859+433.996+88.859C435.29+88.859+436.339+89.9074+436.339+91.2006C436.339+92.4938+435.29+93.5422+433.996+93.5422C432.702+93.5422+431.653+92.4938+431.653+91.2006Z" fill="#2563eb" stroke-linecap="butt" opacity="1" stroke-linejoin="miter"/>
<path stroke="#2563eb" stroke-width="2.08143" d="M439.463+91.2006C439.463+89.9074+440.512+88.859+441.806+88.859C443.1+88.859+444.149+89.9074+444.149+91.2006C444.149+92.4938+443.1+93.5422+441.806+93.5422C440.512+93.5422+439.463+92.4938+439.463+91.2006Z" fill="#2563eb" stroke-linecap="butt" opacity="1" stroke-linejoin="miter"/>
<path stroke="#2563eb" stroke-width="2.34161" d="M477.213+151.042C477.213+136.672+488.869+125.024+503.248+125.024C517.626+125.024+529.282+136.672+529.282+151.042C529.282+165.411+517.626+177.06+503.248+177.06C488.869+177.06+477.213+165.411+477.213+151.042Z" fill="#ffffff" stroke-linecap="butt" opacity="1" stroke-linejoin="miter"/>
<path stroke="#2563eb" stroke-width="2.08143" d="M500.383+121.902L500.383+128.146L506.633+128.146L506.633+121.902L500.383+121.902Z" fill="#ffffff" stroke-linecap="butt" opacity="1" stroke-linejoin="miter"/>
<path stroke="#2563eb" stroke-width="2.08143" d="M500.123+173.937L500.123+180.182L506.373+180.182L506.373+173.937L500.123+173.937Z" fill="#ffffff" stroke-linecap="butt" opacity="1" stroke-linejoin="miter"/>
<path stroke="#2563eb" stroke-width="2.08143" d="M474.089+148.18L474.089+154.424L480.338+154.424L480.338+148.18L474.089+148.18Z" fill="#ffffff" stroke-linecap="butt" opacity="1" stroke-linejoin="miter"/>
<path stroke="#2563eb" stroke-width="2.08143" d="M525.897+148.18L525.897+154.424L532.147+154.424L532.147+148.18L525.897+148.18Z" fill="#ffffff" stroke-linecap="butt" opacity="1" stroke-linejoin="miter"/>
<path stroke="#2563eb" stroke-width="2.08143" d="M529.282+127.626L529.282+147.139" fill="none" stroke-linecap="square" opacity="1" stroke-linejoin="miter"/>
<path stroke="#2563eb" stroke-width="2.08143" d="M529.282+154.944L529.282+174.458" fill="none" stroke-linecap="square" opacity="1" stroke-linejoin="miter"/>
<path stroke="#2563eb" stroke-width="2.08143" d="M526.158+126.845C526.158+125.121+527.557+123.723+529.282+123.723C531.008+123.723+532.407+125.121+532.407+126.845C532.407+128.569+531.008+129.967+529.282+129.967C527.557+129.967+526.158+128.569+526.158+126.845Z" fill="#2563eb" stroke-linecap="butt" opacity="1" stroke-linejoin="miter"/>
<path stroke="#2563eb" stroke-width="2.08143" d="M526.158+176.279C526.158+174.555+527.557+173.157+529.282+173.157C531.008+173.157+532.407+174.555+532.407+176.279C532.407+178.003+531.008+179.401+529.282+179.401C527.557+179.401+526.158+178.003+526.158+176.279Z" fill="#2563eb" stroke-linecap="butt" opacity="1" stroke-linejoin="miter"/>
<g opacity="1">
<path stroke="#2563eb" stroke-width="2.08143" d="M443.626+119.56L453.525+119.56C455.249+119.56+456.647+120.958+456.647+122.682L456.647+132.569C456.647+134.293+455.249+135.691+453.525+135.691L443.626+135.691C441.902+135.691+440.504+134.293+440.504+132.569L440.504+122.682C440.504+120.958+441.902+119.56+443.626+119.56Z" fill="#ffffff" stroke-linecap="butt" opacity="1" stroke-linejoin="miter"/>
<path stroke="#2563eb" stroke-width="2.08143" d="M443.626+142.976L453.525+142.976C455.249+142.976+456.647+144.374+456.647+146.098L456.647+155.985C456.647+157.709+455.249+159.107+453.525+159.107L443.626+159.107C441.902+159.107+440.504+157.709+440.504+155.985L440.504+146.098C440.504+144.374+441.902+142.976+443.626+142.976Z" fill="#ffffff" stroke-linecap="butt" opacity="1" stroke-linejoin="miter"/>
<path stroke="#2563eb" stroke-width="2.08143" d="M443.626+166.392L453.525+166.392C455.249+166.392+456.647+167.79+456.647+169.514L456.647+179.401C456.647+181.126+455.249+182.523+453.525+182.523L443.626+182.523C441.902+182.523+440.504+181.126+440.504+179.401L440.504+169.514C440.504+167.79+441.902+166.392+443.626+166.392Z" fill="#ffffff" stroke-linecap="butt" opacity="1" stroke-linejoin="miter"/>
</g>
<path stroke="#2563eb" stroke-width="2.08143" d="M616.759+238.982C616.759+230.361+623.752+223.371+632.379+223.371C641.006+223.371+648+230.361+648+238.982C648+247.604+641.006+254.593+632.379+254.593C623.752+254.593+616.759+247.604+616.759+238.982Z" fill="#ffffff" stroke-linecap="butt" opacity="1" stroke-linejoin="miter"/>
<path stroke="#2563eb" stroke-width="2.08143" d="M623.267+238.982C623.267+233.953+627.347+229.876+632.379+229.876C637.412+229.876+641.491+233.953+641.491+238.982C641.491+244.011+637.412+248.088+632.379+248.088C627.347+248.088+623.267+244.011+623.267+238.982Z" fill="#ffffff" stroke-linecap="butt" opacity="1" stroke-linejoin="miter"/>
<path stroke="#2563eb" stroke-width="2.08143" d="M606.345+215.306C606.345+212.432+608.676+210.102+611.552+210.102C614.427+210.102+616.759+212.432+616.759+215.306C616.759+218.18+614.427+220.509+611.552+220.509C608.676+220.509+606.345+218.18+606.345+215.306Z" fill="#ffffff" stroke-linecap="butt" opacity="1" stroke-linejoin="miter"/>
<path stroke="#2563eb" stroke-width="2.08143" d="M588.64+214.005C588.065+214.005+587.599+214.471+587.599+215.046L587.599+258.756C587.599+261.63+589.929+263.959+592.803+263.959L628.72+263.959C631.594+263.959+633.924+261.63+633.924+258.756L633.924+215.046C633.924+214.471+633.458+214.005+632.883+214.005L588.64+214.005Z" fill="#ffffff" stroke-linecap="butt" opacity="1" stroke-linejoin="miter"/>
<path stroke="#2563eb" stroke-width="2.08143" d="M612.851+228.055L620.146+228.055C621.87+228.055+623.268+229.452+623.268+231.177L623.268+241.584C623.268+243.308+621.87+244.706+620.146+244.706L612.851+244.706C611.126+244.706+609.729+243.308+609.729+241.584L609.729+231.177C609.729+229.452+611.126+228.055+612.851+228.055Z" fill="#ffffff" stroke-linecap="butt" opacity="1" stroke-linejoin="miter"/>
<path stroke="#2563eb" stroke-width="2.08143" d="M616.368+214.395L616.368+226.233" fill="none" stroke-linecap="square" opacity="1" stroke-linejoin="miter"/>
<path stroke="#2563eb" stroke-width="2.08143" d="M557.92+263.699C566.548+263.699+573.541+263.699+573.541+263.699C573.541+255.078+566.548+248.088+557.92+248.088C549.293+248.088+542.3+255.078+542.3+263.699C542.3+263.699+549.293+263.699+557.92+263.699Z" fill="#ffffff" stroke-linecap="butt" opacity="1" stroke-linejoin="miter"/>
<path stroke="#2563eb" stroke-width="2.08143" d="M557.92+247.568L557.92+247.568C558.496+247.568+558.962+248.034+558.962+248.609L558.962+249.909C558.962+250.484+558.496+250.95+557.92+250.95L557.92+250.95C557.345+250.95+556.879+250.484+556.879+249.909L556.879+248.609C556.879+248.034+557.345+247.568+557.92+247.568Z" fill="#7510f7" stroke-linecap="butt" opacity="1" stroke-linejoin="miter"/>
<path stroke="#2563eb" stroke-width="2.08143" d="M16.3914+232.998C7.91345+232.998+1.04071+239.871+1.04071+248.349C1.04071+256.827+7.91345+263.699+16.3914+263.699L79.4071+263.699C80.2692+263.699+80.9681+263+80.9681+262.138L80.9681+259.722C80.9681+258.63+80.1237+257.723+79.0341+257.646C71.8804+257.138+68.0805+253.995+68.0805+248.349C68.0805+242.702+71.8804+239.559+79.0342+239.051C80.1237+238.974+80.9681+238.067+80.9681+236.975L80.9681+234.559C80.9681+233.697+80.2692+232.998+79.4071+232.998L16.3914+232.998Z" fill="#ffffff" stroke-linecap="butt" opacity="1" stroke-linejoin="miter"/>
<path stroke="#2563eb" stroke-width="2.08143" d="M80.1864+258.3C80.1864+258.552+79.9822+258.756+79.7302+258.756L79.7302+258.756L72.3534+258.756L16.1414+258.756C10.39+258.756+5.7276+254.096+5.7276+248.349C5.7276+242.601+10.39+237.941+16.1414+237.941L72.3534+237.941L79.7302+237.941L79.7302+237.941C79.9822+237.941+80.1864+238.146+80.1864+238.397" fill="none" stroke-linecap="butt" opacity="1" stroke-linejoin="miter"/>
<path stroke="#2563eb" stroke-width="2.08143" d="M15.0994+243.926L67.6905+243.926C68.2653+243.926+68.7312+244.391+68.7312+244.966L68.7312+244.966C68.7312+245.541+68.2653+246.007+67.6905+246.007L15.0994+246.007C14.5246+246.007+14.0587+245.541+14.0587+244.966L14.0587+244.966C14.0587+244.391+14.5246+243.926+15.0994+243.926Z" fill="#7510f7" stroke-linecap="butt" opacity="1" stroke-linejoin="miter"/>
<path stroke="#2563eb" stroke-width="2.08143" d="M15.0994+250.43L67.6905+250.43C68.2653+250.43+68.7312+250.896+68.7312+251.471L68.7312+251.471C68.7312+252.045+68.2653+252.511+67.6905+252.511L15.0994+252.511C14.5246+252.511+14.0587+252.045+14.0587+251.471L14.0587+251.471C14.0587+250.896+14.5246+250.43+15.0994+250.43Z" fill="#7510f7" stroke-linecap="butt" opacity="1" stroke-linejoin="miter"/>
<path stroke="#2563eb" stroke-width="2.08143" d="M65.1265+181.055C63.8489+179.92+62.5712+178.785+61.2935+177.65C59.2574+175.843+57.2272+174.03+55.1911+172.223C54.7243+171.812+54.2576+171.395+53.7967+170.983C53.7967+171.528+53.7967+172.078+53.7967+172.622C55.0744+171.487+56.3521+170.352+57.6297+169.217C59.6658+167.41+61.6961+165.597+63.7322+163.79C64.1989+163.379+64.6656+162.962+65.1265+162.551C65.5816+162.145+65.5758+161.317+65.1265+160.912C64.6423+160.466+63.9656+160.477+63.4755+160.912C62.1978+162.047+60.9202+163.182+59.6425+164.317C57.6064+166.124+55.5761+167.937+53.54+169.744C53.0733+170.155+52.6066+170.572+52.1457+170.983C51.6965+171.383+51.6965+172.223+52.1457+172.622C53.4233+173.758+54.701+174.893+55.9787+176.028C58.0148+177.835+60.045+179.648+62.0811+181.455C62.5479+181.866+63.0146+182.283+63.4755+182.694C63.9306+183.1+64.6832+183.175+65.1265+182.694C65.5349+182.254+65.6108+181.489+65.1265+181.055L65.1265+181.055Z" fill="#2563eb" stroke-linecap="butt" opacity="1" stroke-linejoin="miter"/>
<path stroke="#2563eb" stroke-width="2.08143" d="M84.5826+162.554C85.8603+163.689+87.1379+164.824+88.4156+165.959C90.4517+167.766+92.4819+169.579+94.5181+171.386C94.9848+171.797+95.4515+172.214+95.9124+172.625C95.9124+172.081+95.9124+171.531+95.9124+170.986C94.6347+172.121+93.3571+173.257+92.0794+174.392C90.0433+176.199+88.013+178.011+85.9769+179.818C85.5102+180.23+85.0435+180.647+84.5826+181.058C84.1275+181.463+84.1334+182.291+84.5826+182.697C85.0668+183.143+85.7436+183.131+86.2336+182.697C87.5113+181.562+88.789+180.427+90.0666+179.291C92.1027+177.484+94.133+175.672+96.1691+173.865C96.6358+173.453+97.1026+173.036+97.5634+172.625C98.0127+172.226+98.0127+171.386+97.5634+170.986C96.2858+169.851+95.0081+168.716+93.7304+167.581C91.6943+165.774+89.6641+163.961+87.628+162.154C87.1613+161.743+86.6945+161.326+86.2336+160.914C85.7786+160.509+85.026+160.434+84.5826+160.914C84.1742+161.355+84.0984+162.119+84.5826+162.554L84.5826+162.554Z" fill="#2563eb" stroke-linecap="butt" opacity="1" stroke-linejoin="miter"/>
<path stroke="#2563eb" stroke-width="2.08143" d="M70.6937+187.876C71.0438+186.833+71.388+185.791+71.738+184.742C72.5723+182.235+73.4066+179.733+74.2409+177.225C75.2443+174.202+76.2478+171.184+77.2571+168.161C78.1264+165.549+78.9957+162.937+79.8649+160.325C80.2792+159.056+80.7459+157.794+81.1309+156.508C81.1368+156.491+81.1426+156.473+81.1484+156.456C81.341+155.883+80.9267+155.164+80.3317+155.031C79.6899+154.886+79.1007+155.222+78.8965+155.842C78.5464+156.885+78.2022+157.927+77.8522+158.975C77.0179+161.483+76.1836+163.985+75.3493+166.493C74.3459+169.516+73.3424+172.534+72.3331+175.557C71.4638+178.169+70.5946+180.781+69.7253+183.393C69.3111+184.656+68.8443+185.918+68.4593+187.204C68.4534+187.221+68.4476+187.239+68.4418+187.256C68.2492+187.829+68.6635+188.548+69.2585+188.681C69.9003+188.826+70.4895+188.49+70.6937+187.876L70.6937+187.876Z" fill="#2563eb" stroke-linecap="butt" opacity="1" stroke-linejoin="miter"/>
</g>
</g>
</svg>